<?xml version="1.0" encoding="utf-8"?>
<!-- Generator: Adobe Illustrator 16.0.0, SVG Export Plug-In . SVG Version: 6.00 Build 0)  -->
<!DOCTYPE svg PUBLIC "-//W3C//DTD SVG 1.1//EN" "http://www.w3.org/Graphics/SVG/1.1/DTD/svg11.dtd">
<svg version="1.1" id="图层_1" xmlns="http://www.w3.org/2000/svg" xmlns:xlink="http://www.w3.org/1999/xlink" x="0px" y="0px"
	 width="170px" height="95px" viewBox="0 0 170 95" enable-background="new 0 0 170 95" xml:space="preserve">
<rect fill="#19793A" width="168.875" height="95.452"/>
<rect x="86.491" y="82.721" fill="#064C29" width="82.384" height="12.73"/>
<circle fill="#FFFFFF" stroke="#F39800" stroke-width="2" stroke-miterlimit="10" cx="7.325" cy="6.703" r="3.344"/>
<g>
	
		<rect x="86.236" y="29.736" transform="matrix(0.7071 0.7071 -0.7071 0.7071 56.9952 -56.7048)" fill="#054F2B" width="21.419" height="21.419"/>
</g>
<circle fill="#F39800" stroke="#898989" stroke-width="3" stroke-miterlimit="10" cx="96.946" cy="40.445" r="6.969"/>
<line fill="none" stroke="#FFFFFF" stroke-width="3" stroke-miterlimit="10" x1="98.873" y1="37.202" x2="95.017" y2="43.742"/>
<g>
	<rect x="133.622" y="9.222" fill="#3E3A39" width="19.04" height="26.32"/>
	
		<text transform="matrix(-4.371138e-008 -1 1 -4.371138e-008 139.0557 32.0376)" fill="#B5B5B6" font-family="'DroidSans'" font-size="3.4069">LABEL</text>
	<rect x="126.336" y="12.693" fill="#B5B5B6" width="7.287" height="2.739"/>
	<rect x="126.336" y="18.543" fill="#B5B5B6" width="7.287" height="2.738"/>
	<rect x="126.336" y="24.018" fill="#B5B5B6" width="7.287" height="2.739"/>
	<rect x="126.336" y="29.494" fill="#B5B5B6" width="7.287" height="2.738"/>
	<rect x="152.662" y="12.612" fill="#B5B5B6" width="7.289" height="2.738"/>
	<rect x="152.662" y="18.461" fill="#B5B5B6" width="7.289" height="2.737"/>
	<rect x="152.662" y="23.938" fill="#B5B5B6" width="7.289" height="2.738"/>
	<rect x="152.662" y="29.414" fill="#B5B5B6" width="7.289" height="2.738"/>
</g>
<g>
	<rect x="0.714" y="62.789" fill="#3E3A39" width="83.811" height="21.652"/>
	<text transform="matrix(1.0634 0 0 1 19.8174 72.4434)" fill="#DCDDDD" font-family="'DroidSans'" font-size="8.7488">PT2272-M4</text>
	<text transform="matrix(1 0 0 1 24.0967 79.8828)" fill="#C9CACA" font-family="'DroidSans'" font-size="4.0135">PTC</text>
	<ellipse fill="none" stroke="#B5B5B6" stroke-miterlimit="10" cx="27.655" cy="78.575" rx="6.72" ry="2.8"/>
	<rect x="6.141" y="57.179" fill="#B5B5B6" width="2.738" height="5.611"/>
	<rect x="15.101" y="57.179" fill="#B5B5B6" width="2.739" height="5.611"/>
	<rect x="23.971" y="57.179" fill="#B5B5B6" width="2.738" height="5.611"/>
	<rect x="32.884" y="57.179" fill="#B5B5B6" width="2.737" height="5.611"/>
	<rect x="41.251" y="57.179" fill="#B5B5B6" width="2.738" height="5.611"/>
	<rect x="49.676" y="57.179" fill="#B5B5B6" width="2.738" height="5.611"/>
	<rect x="58.658" y="57.179" fill="#B5B5B6" width="2.739" height="5.611"/>
	<rect x="68.116" y="57.179" fill="#B5B5B6" width="2.738" height="5.611"/>
	<rect x="77.172" y="57.179" fill="#B5B5B6" width="2.738" height="5.611"/>
	<rect x="6.342" y="84.441" fill="#B5B5B6" width="2.738" height="5.61"/>
	<rect x="15.303" y="84.441" fill="#B5B5B6" width="2.737" height="5.61"/>
	<rect x="24.171" y="84.441" fill="#B5B5B6" width="2.738" height="5.61"/>
	<rect x="33.084" y="84.441" fill="#B5B5B6" width="2.738" height="5.61"/>
	<rect x="41.452" y="84.441" fill="#B5B5B6" width="2.739" height="5.61"/>
	<rect x="49.877" y="84.441" fill="#B5B5B6" width="2.736" height="5.61"/>
	<rect x="58.858" y="84.441" fill="#B5B5B6" width="2.739" height="5.61"/>
	<rect x="68.317" y="84.441" fill="#B5B5B6" width="2.738" height="5.61"/>
	<rect x="77.373" y="84.441" fill="#B5B5B6" width="2.737" height="5.61"/>
</g>
<circle fill="#FFFFFF" stroke="#F39800" stroke-width="2" stroke-miterlimit="10" cx="162.139" cy="89.181" r="3.344"/>
<circle fill="#FFFFFF" stroke="#F39800" stroke-width="2" stroke-miterlimit="10" cx="151.071" cy="89.181" r="3.344"/>
<circle fill="#FFFFFF" stroke="#F39800" stroke-width="2" stroke-miterlimit="10" cx="139.799" cy="89.181" r="3.344"/>
<circle fill="#FFFFFF" stroke="#F39800" stroke-width="2" stroke-miterlimit="10" cx="128.662" cy="89.181" r="3.344"/>
<circle fill="#FFFFFF" stroke="#F39800" stroke-width="2" stroke-miterlimit="10" cx="117.338" cy="89.181" r="3.344"/>
<circle fill="#FFFFFF" stroke="#F39800" stroke-width="2" stroke-miterlimit="10" cx="105.889" cy="89.181" r="3.344"/>
<circle fill="#FFFFFF" stroke="#F39800" stroke-width="2" stroke-miterlimit="10" cx="94.439" cy="89.181" r="3.344"/>
<text transform="matrix(1 0 0 1 13.4854 8.6309)" fill="#FFFFFF" font-family="'DroidSans'" font-size="5.3753">ANT</text>
<text transform="matrix(1 0 0 1 158.0859 81.5996)" fill="#FFFFFF" font-family="'DroidSans'" font-size="3.8089">GND</text>
<text transform="matrix(1 0 0 1 148.6953 81.5996)" fill="#FFFFFF" font-family="'DroidSans'" font-size="3.8089">5V</text>
<rect x="142.755" y="3.36" fill="#C9CACA" width="9.945" height="3.969"/>
<rect x="4.157" y="16.058" fill="#C9CACA" width="3.968" height="9.946"/>
<rect x="51.246" y="39.076" fill="#3E3A39" width="8.781" height="11.45"/>
<text transform="matrix(1 0 0 1 92.0391 81.5996)" fill="#FFFFFF" font-family="'DroidSans'" font-size="3.8089">VT</text>
<text transform="matrix(1 0 0 1 103.3936 81.6025)" fill="#FFFFFF" font-family="'DroidSans'" font-size="3.8089">D3</text>
<text transform="matrix(1 0 0 1 36.9629 78.5762)" fill="#B5B5B6" font-family="'DroidSans'" font-size="3.4533">LABEL</text>
<text transform="matrix(1 0 0 1 114.6182 81.5996)" fill="#FFFFFF" font-family="'DroidSans'" font-size="3.8089">D2</text>
<text transform="matrix(1 0 0 1 126.0869 81.5996)" fill="#FFFFFF" font-family="'DroidSans'" font-size="3.8089">D1</text>
<text transform="matrix(1 0 0 1 137.2041 81.6025)" fill="#FFFFFF" font-family="'DroidSans'" font-size="3.8089">D0</text>
</svg>
