<?xml version="1.0" encoding="utf-8"?>
<!-- Generator: Adobe Illustrator 16.0.0, SVG Export Plug-In . SVG Version: 6.00 Build 0)  -->
<!DOCTYPE svg PUBLIC "-//W3C//DTD SVG 1.1//EN" "http://www.w3.org/Graphics/SVG/1.1/DTD/svg11.dtd">
<svg version="1.1" id="图层_1" xmlns="http://www.w3.org/2000/svg" xmlns:xlink="http://www.w3.org/1999/xlink" x="0px" y="0px"
	 width="95px" height="95px" viewBox="0 0 95 95" enable-background="new 0 0 95 95" xml:space="preserve">
<rect fill="#0E833D" width="95" height="95"/>
<rect x="3.325" y="27.55" fill="#FFFFFF" width="44.967" height="13.933"/>
<circle fill="#FFFFFF" stroke="#F39800" stroke-width="2" stroke-miterlimit="10" cx="8.813" cy="76.421" r="4.538"/>
<circle fill="#FFFFFF" stroke="#F39800" stroke-width="2" stroke-miterlimit="10" cx="20.846" cy="76.421" r="4.538"/>
<circle fill="#FFFFFF" stroke="#F39800" stroke-width="2" stroke-miterlimit="10" cx="32.879" cy="76.421" r="4.538"/>
<circle fill="#FFFFFF" stroke="#F39800" stroke-width="2" stroke-miterlimit="10" cx="45.021" cy="76.421" r="4.538"/>
<rect x="6.333" y="31.033" fill="#FFFFFF" stroke="#898989" stroke-width="2" stroke-miterlimit="10" width="6.7" height="7.441"/>
<rect x="17.258" y="30.954" fill="#FFFFFF" stroke="#898989" stroke-width="2" stroke-miterlimit="10" width="6.7" height="7.442"/>
<rect x="28.079" y="31.033" fill="#FFFFFF" stroke="#898989" stroke-width="2" stroke-miterlimit="10" width="6.7" height="7.441"/>
<rect x="38.95" y="30.954" fill="#FFFFFF" stroke="#898989" stroke-width="2" stroke-miterlimit="10" width="6.7" height="7.442"/>
<g>
	<rect x="3.325" y="47.342" fill="#3E3A39" width="61.75" height="18.209"/>
	<text transform="matrix(1 0 0 1 7.8628 59.0742)" fill="#B5B5B6" font-family="'Calibri-Light'" font-size="8.4596">ULN2003A</text>
</g>
<rect x="84.233" y="49.875" fill="#FFFFFF" stroke="#898989" stroke-width="2" stroke-miterlimit="10" width="6.333" height="6.334"/>
<rect x="84.233" y="59.075" fill="#FFFFFF" stroke="#898989" stroke-width="2" stroke-miterlimit="10" width="6.333" height="6.334"/>
<text transform="matrix(-4.371139e-008 -1 1 -4.371139e-008 81.1855 64.4736)" fill="#FFFFFF" font-family="'Consolas'" font-size="5.0732">5-12V</text>
<text transform="matrix(-4.371139e-008 -1 1 -4.371139e-008 9.6836 92.877)" fill="#FFFFFF" font-family="'Consolas'" font-size="5.5279">IN1</text>
<text transform="matrix(-4.371139e-008 -1 1 -4.371139e-008 21.7168 92.877)" fill="#FFFFFF" font-family="'Consolas'" font-size="5.5279">IN2</text>
<text transform="matrix(-4.371139e-008 -1 1 -4.371139e-008 34.1997 92.877)" fill="#FFFFFF" font-family="'Consolas'" font-size="5.5279">IN3</text>
<text transform="matrix(-4.371139e-008 -1 1 -4.371139e-008 46.5752 92.877)" fill="#FFFFFF" font-family="'Consolas'" font-size="5.5279">IN4</text>
<rect x="6.017" y="44.967" fill="#9FA0A0" width="3.429" height="2.375"/>
<rect x="13.984" y="44.967" fill="#9FA0A0" width="3.429" height="2.375"/>
<rect x="21.479" y="44.967" fill="#9FA0A0" width="3.429" height="2.375"/>
<rect x="28.712" y="44.967" fill="#9FA0A0" width="3.43" height="2.375"/>
<rect x="36.335" y="44.967" fill="#9FA0A0" width="3.43" height="2.375"/>
<rect x="43.939" y="44.967" fill="#9FA0A0" width="3.429" height="2.375"/>
<rect x="51.169" y="44.967" fill="#9FA0A0" width="3.43" height="2.375"/>
<rect x="58.61" y="44.967" fill="#9FA0A0" width="3.43" height="2.375"/>
<rect x="6.188" y="65.551" fill="#9FA0A0" width="3.43" height="2.375"/>
<rect x="14.155" y="65.551" fill="#9FA0A0" width="3.429" height="2.375"/>
<rect x="21.651" y="65.551" fill="#9FA0A0" width="3.429" height="2.375"/>
<rect x="28.884" y="65.551" fill="#9FA0A0" width="3.43" height="2.375"/>
<rect x="36.507" y="65.551" fill="#9FA0A0" width="3.43" height="2.375"/>
<rect x="44.111" y="65.551" fill="#9FA0A0" width="3.43" height="2.375"/>
<rect x="51.341" y="65.551" fill="#9FA0A0" width="3.43" height="2.375"/>
<rect x="58.782" y="65.551" fill="#9FA0A0" width="3.43" height="2.375"/>
<rect x="67.45" y="7.178" fill="#B5B5B6" width="19.95" height="6.122"/>
<rect x="67.449" y="16.255" fill="#B5B5B6" width="19.951" height="6.122"/>
<rect x="67.45" y="25.438" fill="#B5B5B6" width="19.95" height="6.123"/>
<rect x="67.45" y="34.754" fill="#B5B5B6" width="19.95" height="6.123"/>
<text transform="matrix(1 0 0 1 6.1885 20.3188)" fill="#FFFFFF" font-family="'Consolas'" font-size="9.1706">A  B  C  D</text>
</svg>
